<?xml version="1.0" encoding="UTF-8" standalone="no"?>
 <svg
      xmlns="http://www.w3.org/2000/svg"
      width="666.667"
      height="666.667"
      preserveAspectRatio="xMidYMid"
      version="1"
      viewBox="0 0 500 500"
    >
      <path
        fill="#000"
        stroke="none"
        strokeWidth="0.1"
        d="M70.539 219.286c-3.3 1.3-6.7 3.2-7.5 4.1-1.3 1.3-1 1.3 1.4-.2 3-1.8 3-1.8 1.5.1-.8 1.1-1 1.7-.6 1.3.5-.4 1.5-.3 2.2.2.8.8 2.3.4 5-1.5 2-1.4 4.4-2.3 5.3-2 .9.2 2.3 0 3.1-.6 1.1-.8.5-.9-2.2-.5-2.1.3-5.5.8-7.5 1.1l-3.8.5 3.5-1.7c2-.9 7.5-2 12.5-2.3l9-.7-8-.1c-6.4-.1-9.2.3-13.9 2.3z"
      ></path>
      <path
        fill="#000"
        stroke="none"
        strokeWidth="0.1"
        d="M93.739 218.486c.7.3 1.6.2 1.9-.1.4-.3-.2-.6-1.3-.5-1.1 0-1.4.3-.6.6z"
      ></path>
      <path
        fill="#000"
        stroke="none"
        strokeWidth="0.1"
        d="M90.939 221.086c3 .7 7.1 2.1 9.1 3.1 4.5 2.1 11.9 8.3 11.9 9.9 0 .6-1.5-.3-3.3-2.1-3.6-3.5-5-4.1-4.1-1.7.4.8.1 1.5-.6 1.5-.6 0-.9.4-.6.8.3.5-.5.7-1.7.6-1.2-.1-2.6-.3-3.2-.3-.5-.1-.3-.6.5-1.1 1.3-.9 1.3-1 0-1-1.2 0-1.3-.2-.1-.9.9-.6-.1-1.4-3.5-2.7-5.4-2-6.9-3.4-5.1-4.6 1.6-1.1-9.3-.9-11.8.2-1.3.5 0 .6 3.3.3 4.5-.5 5.2-.4 4.6 1-.3.9-2 1.8-3.7 2-1.8.2-.3.5 3.3.6 3.6.1 7.4.6 8.5 1.1 1.7.6 1.4.9-2 1.5l-3.9.8 4.2 1.3c2.4.6 4.9 1.7 5.7 2.4.8.6 2 .8 2.6.4.7-.4.9-.3.6.3-.4.6.3 1.9 1.4 2.9 1.2 1.1 3.2 3.9 4.4 6.4 2.2 4.1 2.4 4.2 2.2 1.6-.2-3.4 1.8-4.6 2.8-1.7.7 2.2 2.9 2.8 4 1.1 1.1-1.8 4.5.9 4.6 3.8.1 1.9.3 2.1.6.8.9-3.5-7-19.1-9.5-18.4-.4.1-2.2-1.2-3.9-2.9-4.4-4.2-11.5-7.3-17.7-7.9l-5.1-.4zm-2 3.7c0 .5-.4 1-1 1-.5 0-1-.5-1-1 0-.6.5-1 1-1 .6 0 1 .4 1 1zm8 5c-1.2.8-1.2 1-.1 1 .8 0 1.2.2 1 .5-.3.2-1.6.1-2.9-.2-2.2-.6-2.3-.7-.4-1.4 2.7-1.1 4.2-1 2.4.1zm19 6.7c1.7 2.6 3 5.2 3 5.7 0 .6-.5.4-1-.4-.9-1.3-1-1.3-1 0 0 2.2-4.2-5-4.5-7.7-.1-1.3-.1-2.3.2-2.3.2 0 1.7 2.1 3.3 4.7zm-4.5 0c3.2 4.8 3.4 7 .3 4.9-1.2-.9-3-1.6-3.8-1.6-.9 0-2.7-1.1-4-2.5-2.1-2.3-2.2-2.5-.5-2.5 1 0 3 1 4.4 2.2 2.1 1.9 2 1.7-.3-1-2.8-3-2.9-3.2-.8-3.2 1.3 0 3.1 1.4 4.7 3.7z"
      ></path>
      <path
        fill="#000"
        stroke="none"
        strokeWidth="0.1"
        d="M113.839 236.286c1.7 3.4 3.1 5.1 3.1 3.9 0-.7-.9-2.2-2.1-3.5-1.6-1.9-1.8-2-1-.4z"
      ></path>
      <path
        fill="#000"
        stroke="none"
        strokeWidth="0.1"
        d="M100.939 220.786c.8.5 2 1 2.5 1 .6 0 .3-.5-.5-1s-1.9-1-2.5-1c-.5 0-.3.5.5 1z"
      ></path>
      <path
        fill="#000"
        stroke="none"
        strokeWidth="0.1"
        d="M96.239 224.986c4.3 1.9 4.7 2.4 4.3 4.9-.3 2.1-.1 2.6 1 2.2.8-.3 1.2-.9.9-1.3-.3-.5-.1-1.1.5-1.5.6-.4.8-1 .5-1.5-.6-1-9.2-5-10.7-5-.7.1.9 1 3.5 2.2z"
      ></path>
      <path
        fill="#000"
        stroke="none"
        strokeWidth="0.1"
        d="M107.439 223.486c.6.6 3.3 3 6 5.4l5 4.3-4-4.3c-2.2-2.3-4.9-4.7-6-5.3-1.1-.6-1.5-.6-1-.1z"
      ></path>
      <path
        fill="#000"
        stroke="none"
        strokeWidth="0.1"
        d="M71.239 227.986c-3.6 3.6-4.4 4-5.8 2.8-1.4-1.2-1.4-1.5.2-3.4 1-1.2.2-.6-1.8 1.2-2 1.8-4.2 3-5 2.7-.9-.3-2.6 1.2-4.7 4.4-3.5 5.5-3.9 7.1-1.7 7.1.8 0 1.5-.4 1.5-.8s1.8-2.8 4-5.2c2.2-2.4 4-4.9 4-5.5 0-.5.5-.3 1 .5.9 1.3 1 1.3 1 0 .1-1 .5-.7 1.3.8.7 1.2 1.6 1.9 2 1.6.4-.4.7-.3.7.3 0 .5-1.1 2-2.4 3.2-2 1.9-2.4 2-3 .6-.3-.9-.2-1.4.3-1.1.5.3 1.5-.2 2.2-1.1 1-1.1 1-1.4.2-.9-.8.4-1.1.2-.7-.7.3-.8-.2-1.4-1.1-1.4-.8 0-1.4.5-1.3 1.1.1.6-.3 2.1-1 3.3-.7 1.3-1.1 2.3-.8 2.3.3 0-.2 1.6-1 3.5s-1 3.5-.5 3.5 1.2-1.3 1.6-3c.4-1.6 1.1-3.2 1.5-3.5.5-.3.4.8-.2 2.5-.5 1.7-.8 3.4-.5 3.7.3.3.9-.8 1.3-2.3.8-3.4 9.3-12.6 11-12 .7.3 3.1-.2 5.5-.9 2.4-.8 3.5-1.4 2.4-1.4-1.1-.1-2.7-.6-3.5-1.1-1.3-.9-1.3-1.1 0-2 1.3-.8 1.2-1-.3-1-1 0-2 .8-2.4 1.7-.8 2.3-5.5 6.3-6.6 5.6-.5-.3 1-2.5 3.4-4.9 2.4-2.4 4.1-4.4 3.8-4.4-.2 0-2.3 1.9-4.6 4.2zm7.7 2.2c0 .2-.9.6-2 .9-1.1.3-1.8.1-1.4-.4.5-.9 3.4-1.3 3.4-.5zm-23 7.6c-1.2 1.7-2.4 2.9-2.7 2.6-.3-.3.5-1.9 1.7-3.6 1.2-1.7 2.4-2.9 2.7-2.6.3.3-.5 1.9-1.7 3.6z"
      ></path>
      <path
        fill="#000"
        stroke="none"
        strokeWidth="0.1"
        d="M57.839 227.486l-2.4 2.8 2.8-2.4c2.5-2.3 3.2-3.1 2.4-3.1-.2 0-1.4 1.2-2.8 2.7z"
      ></path>
      <path
        fill="#000"
        stroke="none"
        strokeWidth="0.1"
        d="M83.739 228.486c1.8.2 4.5.2 6 0s0-.4-3.3-.4-4.5.2-2.7.4z"
      ></path>
      <path
        fill="#000"
        stroke="none"
        strokeWidth="0.1"
        d="M53.139 232.986c-1.6 2.1-5.3 9.9-5 10.6.2.4 1.7-2.1 3.4-5.5 3.1-6.5 3.4-7.2 1.6-5.1z"
      ></path>
      <path
        fill="#000"
        stroke="none"
        strokeWidth="0.1"
        d="M86.439 232.786c3.9.3 8 1.2 9.3 1.8 1.2.7 2.2 1 2.2.7 0-1.5-7.5-3.5-12.7-3.4l-5.8.2z"
      ></path>
      <path
        fill="#000"
        stroke="none"
        strokeWidth="0.1"
        d="M75.939 233.786c-.8.5-1 1-.5 1 .6 0 1.7-.5 2.5-1s1.1-1 .5-1c-.5 0-1.7.5-2.5 1z"
      ></path>
      <path
        fill="#000"
        stroke="none"
        strokeWidth="0.1"
        d="M118.939 235.786c.6 1.1 1.3 2 1.6 2 .2 0 0-.9-.6-2s-1.3-2-1.6-2c-.2 0 0 .9.6 2z"
      ></path>
      <path
        fill="#000"
        stroke="none"
        strokeWidth="0.1"
        d="M70.539 237.586c-2.4 2.6-2.5 3-1.1 4.2 1 .8 1.5.9 1.5.1 0-.6-.5-1.1-1.2-1.1-.6 0 .1-1.4 1.7-3 1.6-1.7 2.6-3 2.4-3-.3 0-1.8 1.3-3.3 2.8z"
      ></path>
      <path
        fill="#000"
        stroke="none"
        strokeWidth="0.1"
        d="M76.239 237.686c-1.7 1.1-3.4 1.7-3.7 1.4-.3-.4-.6-.1-.6.5 0 1.5-.3 1.6 5.4-1.3 2.7-1.4 4.3-2.5 3.5-2.5-.8 0-2.8.9-4.6 1.9z"
      ></path>
      <path
        fill="#000"
        stroke="none"
        strokeWidth="0.1"
        d="M82.939 237.786c-1 1.8-.8 2 3 2 3.9 0 3.9 0 2.3-2-1-1.1-2.3-2-3-2-.7 0-1.7.9-2.3 2zm3.5 0c.3.5.1 1-.4 1-.6 0-1.1-.5-1.1-1 0-.6.2-1 .4-1 .3 0 .8.4 1.1 1z"
      ></path>
      <path
        fill="#000"
        stroke="none"
        strokeWidth="0.1"
        d="M93.439 237.686c4.1 1.8 11.5 9.1 11.5 11.3 0 .6.3.9.6.6.3-.4.1-1.6-.6-2.7-.6-1.2-.7-2.1-.1-2.1 1.4 0 3.1 5.9 2.9 10.4l-.1 4.1-.7-4.5-.7-4.5-.2 4.5c-.1 2.5-.4 5.5-.7 6.7-.6 2-.3 2.1 3 1.7 2-.2 3.6 0 3.6.5s1 1.1 2.3 1.4c1.9.3 1.4 1.2-5.3 7.7-4.1 4-5.8 5.9-3.7 4.1 2.5-2 4.5-3 5.6-2.6 1 .3 2.4-.1 3.1-1 .7-.9.8-1.5.2-1.5-.6 0-1.2.6-1.5 1.2-.2.7-.8 1-1.2.5-1.3-1.1.1-1.9 4.2-2.3 2.1-.2 3.1 0 2.3.3-.8.3-3.1 2.1-5.2 4-2 2-4.1 3.2-4.7 2.9-.6-.4-1.4.1-1.7 1.1-.4 1-1.8 2.9-3.3 4.2l-2.6 2.4 3.3-2c1.8-1.1 5.4-3.7 8-5.9 2.6-2.1 5-4 5.4-4 .5-.1 1.1-.3 1.6-.4.4-.1 1-.2 1.3-.2.3.1.5-.9.5-2.1-.1-1.3.4-2.1 1.2-1.9.6.1 1.2-.2 1.2-.8 0-.6-.7-1-1.6-1-1.1 0-1.4-.5-1-1.6.3-.9.8-2.8 1.1-4.2.3-1.5-.4-.3-1.5 2.5-1.3 3.2-2.8 5.3-3.7 5.3-1 0-1.3-.5-.8-1.8.4-.9.8-3.8.9-6.4.1-2.7.8-5.4 1.5-6 1-1.1 1.1-.7.7 1.7-.4 1.6-.3 2.4 0 1.7.3-.6 1.2-1.2 2-1.2s1.4-.5 1.4-1c0-.6-.4-1-1-1-.5 0-.9-1-.7-2.3.4-3.8-2.6-2.6-3.6 1.5-1 4.3-2.7 5.1-2.7 1.3 0-1.8-.5-2.5-2-2.5-2.5 0-2.7 2.7-.2 3.2 1.4.3 1.3.5-.5 1-2.1.6-2.3.3-2.3-3 0-5.6-3-12.8-6.9-16.4l-3.5-3.3 3.2 3.8c1.8 2.1 3.2 4 3.2 4.2 0 .9-3.6-.9-6-3-3-2.7-6.3-4.5-8.2-4.5-.7 0 .5.9 2.7 1.9zm26.5 15.1c0 .5-.5 1-1.1 1-.5 0-.7-.5-.4-1 .3-.6.8-1 1.1-1 .2 0 .4.4.4 1zm-5.3 7.6c.2.7-.6 1.1-2 1-1.6 0-2.3-.6-1.9-1.4.5-1.5 3.4-1.2 3.9.4zm-5.7.4c0 .5-.4 1-1 1-.5 0-1-.5-1-1 0-.6.5-1 1-1 .6 0 1 .4 1 1z"
      ></path>
      <path
        fill="#000"
        stroke="none"
        strokeWidth="0.1"
        d="M132.639 239.386c-.4.4-.7 7.2-.7 15.1 0 13.6.1 14.3 2 14.3s2-.7 2-11.3v-11.2l4.8 9c2.6 4.9 5.4 9.1 6.2 9.3 1 .1 3.1-2.8 6-8.5l4.5-8.8.3 10.7c.2 10 .4 10.8 2.2 10.8 1.9 0 2-.8 2-15.1 0-14.8 0-15-2.1-14.7-1.6.2-3.5 3-7.3 10-2.8 5.4-5.3 9.8-5.6 9.8-.3 0-2.7-4.4-5.5-9.8-4.6-8.9-6.9-11.4-8.8-9.6z"
      ></path>
      <path
        fill="#000"
        stroke="none"
        strokeWidth="0.1"
        d="M174.939 253.786c0 12.7.2 15 1.5 15s1.5-2.3 1.5-15-.2-15-1.5-15-1.5 2.3-1.5 15z"
      ></path>
      <path
        fill="#000"
        stroke="none"
        strokeWidth="0.1"
        d="M198.939 239.486c-2.3.9-6 4.5-7.6 7.5-3.2 6.1-.8 16 4.8 20.1 3.9 2.9 10.8 2.8 14.7-.1 3-2.2 3.1-2.2 3.1-.2 0 1.3.7 2 2 2 1.9 0 2.1-.5 1.8-7.8l-.3-7.7-6.2-.3c-5.2-.2-6.3 0-6.3 1.3 0 1.1 1.1 1.5 4.5 1.5 2.5 0 4.5.2 4.5.5 0 2-3.2 7.5-4.8 8.4-3.5 1.9-8.9 1.3-11.8-1.2-2.3-2-2.8-3.4-3.2-8.3-.4-5.4-.1-6.3 2.3-9.2 3.3-3.9 8.1-5 12.3-2.8 1.6.8 3.2 2.2 3.5 3.1.6 1.5 4.7 2.2 4.7.7 0-1.6-3.3-5.3-6-6.7-2.8-1.5-9-1.9-12-.8z"
      ></path>
      <path
        fill="#000"
        stroke="none"
        strokeWidth="0.1"
        d="M229.639 239.486c-.4.3-.7 5.1-.7 10.5 0 15.1 2.5 19.1 11.9 19.1 3.7 0 4.9-.5 7.3-3.1 2.7-3.2 2.8-3.5 2.8-15.2 0-10-.3-12-1.5-12s-1.5 1.9-1.5 10.9c0 9.4-.3 11.2-2.1 13.5-2.6 3.3-7.9 3.6-10.9.6-1.8-1.8-2-3.3-2-13.5 0-8.9-.3-11.5-1.3-11.5-.8 0-1.7.3-2 .7z"
      ></path>
      <path
        fill="#000"
        stroke="none"
        strokeWidth="0.1"
        d="M263.939 253.786v15h9c7.3 0 9-.3 9-1.5s-1.4-1.5-7-1.5h-7v-10h6.5c5.1 0 6.5-.3 6.5-1.5s-1.4-1.5-6.4-1.5h-6.4l-.4-5.1c-.1-2.8-.1-5.3.1-5.5.2-.2 3.5-.4 7.3-.4 5.4 0 6.8-.3 6.8-1.5s-1.7-1.5-9-1.5h-9z"
      ></path>
      <path
        fill="#000"
        stroke="none"
        strokeWidth="0.1"
        d="M293.939 253.686v15.1h9.1c6.8 0 9-.3 8.7-1.3-.3-.7-2.9-1.3-7.1-1.5l-6.6-.3-.3-13.2c-.3-11.6-.5-13.2-2-13.5-1.7-.3-1.8.9-1.8 14.7z"
      ></path>
      <path
        fill="#000"
        stroke="none"
        strokeWidth="0.1"
        d="M325.539 240.886c-2 1.6-2.6 2.9-2.6 5.9 0 4.5.9 5.4 8.7 8.4 5.1 1.9 5.8 2.6 6.1 5.2.4 4-1.7 5.6-6.5 5.2-3-.2-4.1-.9-5.1-3.1-1.5-3-4.2-3.7-4.2-.9 0 3 2.9 6.1 6.7 7.1 7.2 2 13.3-1.6 13.3-7.9 0-4.5-1.7-6.2-9.2-9-3.1-1.1-5.9-2.8-6.2-3.7-.9-2.2 2-6.3 4.5-6.3 2.9 0 5.9 1.8 5.9 3.5 0 .8.9 1.5 2 1.5 2.9 0 2.5-3.4-.6-5.9-1.6-1.3-4.1-2.1-6.4-2.1-2.3 0-4.8.8-6.4 2.1z"
      ></path>
      <path
        fill="#000"
        stroke="none"
        strokeWidth="0.1"
        d="M360.239 240.386c-4.8 2.4-7.3 7.1-7.3 13.5 0 9.4 5.2 15.1 13.8 15.2 6.2.1 10.7-2.4 13.2-7.3 7-13.7-6.2-28-19.7-21.4zm14.5 4.8c4.8 4.8 3.7 16.6-1.7 19.6-1.1.5-3.8 1-6.1 1-8.5 0-12.6-8.6-8.8-18.4 2.3-5.8 11.8-7 16.6-2.2z"
      ></path>
      <path
        fill="#000"
        stroke="none"
        strokeWidth="0.1"
        d="M402.539 239.586c-.6 1.1-10.6 28.1-10.6 28.8 0 .2.8.4 1.8.4 1.3 0 2.4-1.3 3.5-4l1.5-4h5.7c5.6 0 5.7 0 7.3 4 1.1 2.5 2.4 4 3.5 4 .9 0 1.7-.3 1.7-.8-.1-.4-2.4-7-5.3-14.7-3.5-9.4-5.8-14.1-6.9-14.3-.9-.2-1.9.1-2.2.6zm6 15.8c.6 2.3.4 2.4-4 2.4-2.5 0-4.6-.3-4.6-.6 0-.4 1-3.4 2.2-6.7l2.2-6 1.8 4.3c1 2.3 2.1 5.3 2.4 6.6z"
      ></path>
      <path
        fill="#000"
        stroke="none"
        strokeWidth="0.1"
        d="M425.939 240.286c0 1.1 1.1 1.5 4.5 1.5h4.5v13.5c0 12.8.1 13.5 2 13.5s2-.7 2-13.5v-13.5h4.6c3.2 0 4.4-.4 4.2-1.3-.3-.8-3.7-1.3-11.1-1.5-9.1-.2-10.7 0-10.7 1.3z"
      ></path>
      <path
        fill="#000"
        stroke="none"
        strokeWidth="0.1"
        d="M77.339 241.386c-1.8 1.4-1.8 1.4.6.3 3.1-1.4 3.6-1.9 2.4-1.9-.6 0-1.9.7-3 1.6z"
      ></path>
      <path
        fill="#000"
        stroke="none"
        strokeWidth="0.1"
        d="M57.339 242.486c-.4 1-1 4.7-1.3 8.3-.5 5.5-.9 6.5-2.6 6.7-1.6.2-1.7.1-.4-.5 1.4-.6 1.5-.9.4-1.9-1.1-1-1.5-.8-2.1 1l-.8 2.2-.7-2.5c-.7-2.4-.7-2.3-.8.7-.1 2.6.2 3 1.8 2.6 1.1-.3 3.2.5 4.9 1.7 1.7 1.2 3.5 2 4 1.6.6-.3 1.3-.2 1.7.4.3.5-.1 1-.9 1-1.8 0-2.1 1.1-.7 2.5 1.7 1.9 7.9 14.4 7.3 14.9-.3.4-1.4-.2-2.5-1.1-1.7-1.5-1.7-1.3.3 1.4 2.4 3.3 12.6 8 15.2 7 .8-.4.7-.6-.5-.6-1-.1-3.4-.8-5.5-1.7-3.5-1.4-3.6-1.6-1.8-2.9 1.8-1.4 1.7-1.5-1.7-3-4-1.7-4.6-2.9-2-4.3 1.5-.9 1.5-1.2-.5-3.6-2-2.7-3.9-2.3-2.1.4.5.8.9 1.9.9 2.5 0 .5-.9-.5-2-2.3-2.2-3.6-2.5-4.6-1.1-3.7 1.7 1 2.1-1.1.6-3.1-.8-1-1.5-2.6-1.5-3.5 0-.8-1.6-2.1-3.5-2.9-1.9-.7-3.2-1.6-3-2 .2-.3.5-3.3.6-6.6.1-3.2.6-6.7 1.1-7.7.5-1 .8-2.1.5-2.3-.2-.3-.8.3-1.3 1.3zm6.7 24.5c1.2 2.1-1.5 1.9-2.9-.3-.9-1.4-.8-1.7.5-1.5.8.1 1.9.9 2.4 1.8zm6.4 14.8c.3.5-.1 1-1 1s-1.3-.5-1-1c.3-.6.8-1 1-1 .2 0 .7.4 1 1z"
      ></path>
      <path
        fill="#000"
        stroke="none"
        strokeWidth="0.1"
        d="M93.939 241.086c0 .2 1.5 1.4 3.3 2.7 2 1.5 2.7 1.7 1.8.6-1.3-1.6-5.1-4.1-5.1-3.3z"
      ></path>
      <path
        fill="#000"
        stroke="none"
        strokeWidth="0.1"
        d="M122.039 240.786c0 .3.6 2.5 1.3 5 .8 2.5 1.5 3.6 1.5 2.5 0-1.7-2.6-8.8-2.8-7.5z"
      ></path>
      <path
        fill="#000"
        stroke="none"
        strokeWidth="0.1"
        d="M65.639 242.386c-1.2 1.2-.8 2.4.9 2.4 1.1 0 1.4.6.8 2.2-.8 2.7-.1 2.2 1.6-1.2.7-1.4.9-2.2.5-1.8-.4.4-1.3.1-1.9-.8-.6-.8-1.5-1.2-1.9-.8z"
      ></path>
      <path
        fill="#000"
        stroke="none"
        strokeWidth="0.1"
        d="M52.039 245.386c0 1.1.3 1.4.6.6.3-.7.2-1.6-.1-1.9-.3-.4-.6.2-.5 1.3z"
      ></path>
      <path
        fill="#000"
        stroke="none"
        strokeWidth="0.1"
        d="M82.039 246.386c-1.7 1.4-3 3-2.8 3.7.1.6-.5 1.1-1.3 1.2-1.7 0-2.7 3.5-1 3.5.7 0 .9-.7.6-1.7-.4-1-.4-1.4 0-1 1 .9 6.5-4.3 5.8-5.4-.3-.5.2-.6 1-.3.9.4 1.6.1 1.6-.6 0-1 .5-.9 1.8.2 2.1 1.9 5.5 3.2 4.7 1.8-.3-.6-1.2-1-1.9-1-.8 0-1.9-.7-2.6-1.5-1.7-2-2.4-1.9-5.9 1.1zm.9.8c0 .2-.8 1-1.7 1.7-1.6 1.3-1.7 1.2-.4-.4 1.3-1.6 2.1-2.1 2.1-1.3z"
      ></path>
      <path
        fill="#000"
        stroke="none"
        strokeWidth="0.1"
        d="M71.339 247.286c-.9 1.4-1.5 2.7-1.3 3 .3.2 1.2-1 2.1-2.6 2.1-3.6 1.5-3.9-.8-.4z"
      ></path>
      <path
        fill="#000"
        stroke="none"
        strokeWidth="0.1"
        d="M47.039 247.386c0 1.1.3 1.4.6.6.3-.7.2-1.6-.1-1.9-.3-.4-.6.2-.5 1.3z"
      ></path>
      <path
        fill="#000"
        stroke="none"
        strokeWidth="0.1"
        d="M115.239 246.486c-.7.3-1.3 1.4-1.3 2.6 0 2.1 0 2.1 1.6-.1 1.7-2.5 1.6-3.2-.3-2.5z"
      ></path>
      <path
        fill="#000"
        stroke="none"
        strokeWidth="0.1"
        d="M100.539 248.086c.3 1 .9 1.5 1.2 1.2.3-.3 0-1.1-.7-1.8-1-.9-1.1-.8-.5.6z"
      ></path>
      <path
        fill="#000"
        stroke="none"
        strokeWidth="0.1"
        d="M57.939 248.786c0 .5.7 1 1.5 1s1.5-.5 1.5-1c0-.6-.7-1-1.5-1s-1.5.4-1.5 1z"
      ></path>
      <path
        fill="#000"
        stroke="none"
        strokeWidth="0.1"
        d="M81.639 251.586c-3.4 3.5-3.9 5.2-1.5 5.2.5 0 .6-.5.2-1.1-.3-.6.7-2.4 2.2-4 2.2-2.3 3.5-2.9 5.4-2.4 1.9.4 2.1.3 1-.5-2.4-1.6-3.4-1.2-7.3 2.8z"
      ></path>
      <path
        fill="#000"
        stroke="none"
        strokeWidth="0.1"
        d="M49.939 250.186c0 .9.5 1.6 1 1.6.6 0 1-.4 1-.9 0-.6-.4-1.3-1-1.6-.5-.3-1 .1-1 .9z"
      ></path>
      <path
        fill="#000"
        stroke="none"
        strokeWidth="0.1"
        d="M110.039 250.386c0 1.1.3 1.4.6.6.3-.7.2-1.6-.1-1.9-.3-.4-.6.2-.5 1.3z"
      ></path>
      <path
        fill="#000"
        stroke="none"
        strokeWidth="0.1"
        d="M65.539 253.086c-.8 4.1-.2 5.7 1.9 5.7.7 0 1.6.6 1.8 1.2.3.7.6-.8.6-3.4.1-3.7-.2-4.6-1.3-4.2-.9.3-1.6-.2-1.8-1.3-.3-1.1-.7-.3-1.2 2zm3.4 2.7c0 .5-.7 1-1.5 1s-1.5-.5-1.5-1c0-.6.7-1 1.5-1s1.5.4 1.5 1z"
      ></path>
      <path
        fill="#000"
        stroke="none"
        strokeWidth="0.1"
        d="M91.439 250.586c1.9 1.4 1.8 8.2-.2 10.5-1.6 1.9-1.6 2 0 .8.9-.7 1.7-.9 1.7-.4 0 1.5-3.5 4.3-5.3 4.3-1.1 0-1.4.5-1 1.6.4 1.1.8 1.2 1.3.4.4-.6 1.6-1 2.6-.8 1.3.2 1.8-.2 1.6-1.3-.1-.8.9-2.6 2.3-3.9 2.5-2.4 3.3-5 1.5-5-.5 0-1 .6-1 1.4 0 .8-.4 1.7-.9 2-1.1.7 0-4.7 1.1-5.5 1.1-.7-2.1-4.9-3.7-4.9-.7 0-.7.3 0 .8z"
      ></path>
      <path
        fill="#000"
        stroke="none"
        strokeWidth="0.1"
        d="M58.239 252.286c-.3.9-.3 1.8-.1 2.1.3.3.8-.4 1.1-1.6.6-2.3-.1-2.7-1-.5z"
      ></path>
      <path
        fill="#000"
        stroke="none"
        strokeWidth="0.1"
        d="M83.739 252.886c-2.1 1.2-2.4 5.4-.5 6.6.6.4 2.3.6 3.7.5 2.3-.1 2.3-.1.5.7-1.5.7-1.6 1-.4 1 3.8.2 6.4-6.4 3.6-8.8-1.9-1.5-2.7-.4-2 3 .5 2.5.2 2.9-1.5 2.9-1.2 0-2.6-.9-3.2-1.9-1.3-2.6-1.3-3.1.3-2.5.8.3 1.4-.2 1.4-1.1 0-.8-.1-1.5-.1-1.5-.1 0-.9.5-1.8 1.1z"
      ></path>
      <path
        fill="#000"
        stroke="none"
        strokeWidth="0.1"
        d="M46.039 256.886c.1 1.9.5 4.5.9 5.9.6 1.6.7.6.3-3-.7-6.3-1.3-8-1.2-2.9z"
      ></path>
      <path
        fill="#000"
        stroke="none"
        strokeWidth="0.1"
        d="M62.039 256.386c0 1.1.3 1.4.6.6.3-.7.2-1.6-.1-1.9-.3-.4-.6.2-.5 1.3z"
      ></path>
      <path
        fill="#000"
        stroke="none"
        strokeWidth="0.1"
        d="M76.639 257.586c.1.8.3 1.9.3 2.5 0 .7 1.3 2.1 2.8 3.1l2.7 2-1.9-2.2c-1.1-1.2-1.7-2.4-1.4-2.7.3-.3 1.1.1 1.8 1 .7.8 1.6 1.5 2.1 1.5.4 0-.2-1.1-1.5-2.5s-2.8-2.5-3.4-2.5c-.6 0-1.2-.3-1.5-.8-.2-.4-.2-.1 0 .6z"
      ></path>
      <path
        fill="#000"
        stroke="none"
        strokeWidth="0.1"
        d="M102.139 258.786c0 1.4.2 1.9.5 1.2.2-.6.2-1.8 0-2.5-.3-.6-.5-.1-.5 1.3z"
      ></path>
      <path
        fill="#000"
        stroke="none"
        strokeWidth="0.1"
        d="M66.039 261.386c0 1.1.3 1.4.6.6.3-.7.2-1.6-.1-1.9-.3-.4-.6.2-.5 1.3z"
      ></path>
      <path
        fill="#000"
        stroke="none"
        strokeWidth="0.1"
        d="M123.539 262.886c-.8 4.2 0 5 .9.9.4-1.7.5-3.4.2-3.6-.2-.3-.7 1-1.1 2.7z"
      ></path>
      <path
        fill="#000"
        stroke="none"
        strokeWidth="0.1"
        d="M51.939 261.686c0 .6.8 1.9 1.8 2.9.9 1 2.3 2.7 3 3.8.7 1 .3 0-.8-2.3-2-4.2-4-6.4-4-4.4z"
      ></path>
      <path
        fill="#000"
        stroke="none"
        strokeWidth="0.1"
        d="M50.039 263.386c0 1.1.3 1.4.6.6.3-.7.2-1.6-.1-1.9-.3-.4-.6.2-.5 1.3z"
      ></path>
      <path
        fill="#000"
        stroke="none"
        strokeWidth="0.1"
        d="M69.939 262.586c0 .7 1.5 2.7 3.3 4.5 1.7 1.8 2.2 2.1 1.1.7-1.2-1.4-2.6-3.4-3.2-4.5-.6-1.1-1.2-1.4-1.2-.7z"
      ></path>
      <path
        fill="#000"
        stroke="none"
        strokeWidth="0.1"
        d="M100.039 264.486c-1 2.6-1 2.7.4.9.8-1.1 1.5-2.3 1.5-2.8 0-1.5-.7-.8-1.9 1.9z"
      ></path>
      <path
        fill="#000"
        stroke="none"
        strokeWidth="0.1"
        d="M85.439 263.786c.3.5 1.3 1 2.1 1s1.4-.5 1.4-1c0-.6-.9-1-2.1-1-1.1 0-1.7.4-1.4 1z"
      ></path>
      <path
        fill="#000"
        stroke="none"
        strokeWidth="0.1"
        d="M102.839 266.886c-.7 1.3-1.7 1.9-2.9 1.6-1.7-.4-2.9.8-3.5 3.9-.5 2.2 5-1.5 6.8-4.6 1-1.6 1.6-3 1.3-3-.3 0-1 .9-1.7 2.1z"
      ></path>
      <path
        fill="#000"
        stroke="none"
        strokeWidth="0.1"
        d="M50.939 266.086c0 2.1 5.3 10.7 9.2 14.7 4.1 4.3 14 10 17.3 10 .8 0 1.5.5 1.5 1.1 0 1-1.3.9-6.7-.6-1-.3.2.4 2.7 1.6 4.6 2.1 14.6 2.9 18.3 1.4 3.3-1.4-.1-3.5-5.7-3.5-5.8 0-13.5-1.9-18.3-4.4-5.2-2.6-12-9.6-15.3-15.6-1.6-3-3-5.1-3-4.7zm39 26.7c0 .5-1.8 1-4 1s-4-.5-4-1c0-.6 1.8-1 4-1s4 .4 4 1z"
      ></path>
      <path
        fill="#000"
        stroke="none"
        strokeWidth="0.1"
        d="M106.339 267.986l-1.9 2.3 2.3-1.9c1.2-1.1 2.2-2.1 2.2-2.3 0-.8-.8-.2-2.6 1.9z"
      ></path>
      <path
        fill="#000"
        stroke="none"
        strokeWidth="0.1"
        d="M107.439 270.986c-4.6 4.8-4.6 4.9-.9 1.7 3.5-2.9 7-6.9 6.1-6.9-.1 0-2.5 2.3-5.2 5.2z"
      ></path>
      <path
        fill="#000"
        stroke="none"
        strokeWidth="0.1"
        d="M48.939 269.386c0 3.2 10.6 16.1 15.5 18.7 1.1.5-.6-1.4-3.8-4.3-3.2-2.9-7.2-7.6-8.8-10.4-1.6-2.8-2.9-4.6-2.9-4z"
      ></path>
      <path
        fill="#000"
        stroke="none"
        strokeWidth="0.1"
        d="M72.739 272.786c1.5 2.1 2.9 3.7 3.1 3.5.2-.3 1.6.2 3.2 1 3.1 1.7 8.9 2 8.9.6 0-.5 1-1.1 2.2-1.3 2.3-.3 3.5-3.8 1.2-3.8-.8 0-1.4.7-1.4 1.5 0 1-1 1.5-3.4 1.5-3.5 0-5.7-1.5-3.4-2.2.7-.3.3-.7-.8-1-1.7-.4-2-.1-1.6 1.8.4 2.4-1.1 3.3-2.3 1.4-.3-.6-.1-1 .5-1s.8-.5.4-1.1c-.5-.8-.9-.8-1.4.1-.9 1.4-3 .5-3-1.3 0-.7-1.1-1.7-2.5-2.4l-2.5-1.1zm13 4.7c-1 .2-2.6.2-3.5 0-1-.3-.2-.5 1.7-.5s2.7.2 1.8.5z"
      ></path>
      <path
        fill="#000"
        stroke="none"
        strokeWidth="0.1"
        d="M99.339 274.986l-1.9 2.3 2.3-1.9c2.1-1.8 2.7-2.6 1.9-2.6-.2 0-1.2 1-2.3 2.2z"
      ></path>
      <path
        fill="#000"
        stroke="none"
        strokeWidth="0.1"
        d="M110.639 280.286c-3.2 3-7.5 6.4-9.5 7.5-2 1-3.3 1.9-2.9 2 3 .1 15.6-9.2 17.7-13.1.6-1 .9-1.9.8-1.9-.2.1-2.9 2.5-6.1 5.5z"
      ></path>
      <path
        fill="#000"
        stroke="none"
        strokeWidth="0.1"
        d="M73.139 278.286c1.5 1.6 2.9 2.7 3.1 2.4.3-.2-1-1.5-2.7-2.8l-3.1-2.4z"
      ></path>
      <path
        fill="#000"
        stroke="none"
        strokeWidth="0.1"
        d="M98.539 278.286c-1.1.8-1.5 1.5-.9 1.5s1.6-.7 2.3-1.5c1.6-1.9 1.1-1.9-1.4 0z"
      ></path>
      <path
        fill="#000"
        stroke="none"
        strokeWidth="0.1"
        d="M112.439 282.986l-4 4.3 4.3-4c3.9-3.6 4.7-4.5 3.9-4.5-.2 0-2.1 1.9-4.2 4.2z"
      ></path>
      <path
        fill="#000"
        stroke="none"
        strokeWidth="0.1"
        d="M98.139 281.486c-1.6 1.1-2.6 1.3-3 .6-.5-.8-1.3-.8-2.9.1-2.2 1.1-2.2 1.2-.4 2.3 1.5.9 2.5.7 5.5-1.3 2-1.4 3.6-2.7 3.6-2.9 0-.7-.2-.6-2.8 1.2z"
      ></path>
      <path
        fill="#000"
        stroke="none"
        strokeWidth="0.1"
        d="M78.739 281.486c.7.3 1.6.2 1.9-.1.4-.3-.2-.6-1.3-.5-1.1 0-1.4.3-.6.6z"
      ></path>
      <path
        fill="#000"
        stroke="none"
        strokeWidth="0.1"
        d="M86.339 282.386c-1.8 1.4-1.8 1.4.6.3 3.1-1.4 3.6-1.9 2.4-1.9-.6 0-1.9.7-3 1.6z"
      ></path>
      <path
        fill="#000"
        stroke="none"
        strokeWidth="0.1"
        d="M77.739 284.486c.6.2 1.8.2 2.5 0 .6-.3.1-.5-1.3-.5-1.4 0-1.9.2-1.2.5z"
      ></path>
      <path
        fill="#000"
        stroke="none"
        strokeWidth="0.1"
        d="M84.439 284.786c-2.8.7-2.8.8-.5.9 1.4 0 3.2-.4 4-.9 1.7-1.1.8-1.1-3.5 0z"
      ></path>
      <path
        fill="#000"
        stroke="none"
        strokeWidth="0.1"
        d="M96.839 286.786c-1 .6-4.8 1.4-8.5 1.9l-6.9 1 6.6-.3c3.6-.2 7.8-1.1 9.5-1.9 1.6-.9 2.5-1.6 1.9-1.6-.5 0-1.7.4-2.6.9z"
      ></path>
      <path
        fill="#000"
        stroke="none"
        strokeWidth="0.1"
        d="M67.639 289.886c.7.7 1.5 1 1.8.7.3-.3-.2-.9-1.2-1.2-1.4-.6-1.5-.5-.6.5z"
      ></path>
      <path
        fill="#000"
        stroke="none"
        strokeWidth="0.1"
        d="M94.739 290.486c.7.3 1.6.2 1.9-.1.4-.3-.2-.6-1.3-.5-1.1 0-1.4.3-.6.6z"
      ></path>
    </svg>