<?xml version="1.0" encoding="UTF-8" standalone="no"?>
<svg
      xmlns="http://www.w3.org/2000/svg"
      width="105.081"
      height="104.116"
      preserveAspectRatio="xMidYMid"
      version="1"
      viewBox="0 0 78.811 78.087"
    >
      <path
        fill="#fff"
        stroke="none"
        strokeWidth="0.1"
        d="M24.511 2.314c-3.3 1.3-6.7 3.2-7.5 4.1-1.3 1.3-1 1.3 1.4-.2 3-1.8 3-1.8 1.5.1-.8 1.1-1 1.7-.6 1.3.5-.4 1.5-.3 2.2.2.8.8 2.3.4 5-1.5 2-1.4 4.4-2.3 5.3-2 .9.2 2.3 0 3.1-.6 1.1-.8.5-.9-2.2-.5-2.1.3-5.5.8-7.5 1.1l-3.8.5 3.5-1.7c2-.9 7.5-2 12.5-2.3l9-.7-8-.1c-6.4-.1-9.2.3-13.9 2.3z"
      ></path>
      <path
        fill="#fff"
        stroke="none"
        strokeWidth="0.1"
        d="M47.711 1.514c.7.3 1.6.2 1.9-.1.4-.3-.2-.6-1.3-.5-1.1 0-1.4.3-.6.6z"
      ></path>
      <path
        fill="#fff"
        stroke="none"
        strokeWidth="0.1"
        d="M44.911 4.114c3 .7 7.1 2.1 9.1 3.1 4.5 2.1 11.9 8.3 11.9 9.9 0 .6-1.5-.3-3.3-2.1-3.6-3.5-5-4.1-4.1-1.7.4.8.1 1.5-.6 1.5-.6 0-.9.4-.6.8.3.5-.5.7-1.7.6-1.2-.1-2.6-.3-3.2-.3-.5-.1-.3-.6.5-1.1 1.3-.9 1.3-1 0-1-1.2 0-1.3-.2-.1-.9.9-.6-.1-1.4-3.5-2.7-5.4-2-6.9-3.4-5.1-4.6 1.6-1.1-9.3-.9-11.8.2-1.3.5 0 .6 3.3.3 4.5-.5 5.2-.4 4.6 1-.3.9-2 1.8-3.7 2-1.8.2-.3.5 3.3.6 3.6.1 7.4.6 8.5 1.1 1.7.6 1.4.9-2 1.5l-3.9.8 4.2 1.3c2.4.6 4.9 1.7 5.7 2.4.8.6 2 .8 2.6.4.7-.4.9-.3.6.3-.4.6.3 1.9 1.4 2.9 1.2 1.1 3.2 3.9 4.4 6.4 2.2 4.1 2.4 4.2 2.2 1.6-.2-3.4 1.8-4.6 2.8-1.7.7 2.2 2.9 2.8 4 1.1 1.1-1.8 4.5.9 4.6 3.8.1 1.9.3 2.1.6.8.9-3.5-7-19.1-9.5-18.4-.4.1-2.2-1.2-3.9-2.9-4.4-4.2-11.5-7.3-17.7-7.9l-5.1-.4zm-2 3.7c0 .5-.4 1-1 1-.5 0-1-.5-1-1 0-.6.5-1 1-1 .6 0 1 .4 1 1zm8 5c-1.2.8-1.2 1-.1 1 .8 0 1.2.2 1 .5-.3.2-1.6.1-2.9-.2-2.2-.6-2.3-.7-.4-1.4 2.7-1.1 4.2-1 2.4.1zm19 6.7c1.7 2.6 3 5.2 3 5.7 0 .6-.5.4-1-.4-.9-1.3-1-1.3-1 0 0 2.2-4.2-5-4.5-7.7-.1-1.3-.1-2.3.2-2.3.2 0 1.7 2.1 3.3 4.7zm-4.5 0c3.2 4.8 3.4 7 .3 4.9-1.2-.9-3-1.6-3.8-1.6-.9 0-2.7-1.1-4-2.5-2.1-2.3-2.2-2.5-.5-2.5 1 0 3 1 4.4 2.2 2.1 1.9 2 1.7-.3-1-2.8-3-2.9-3.2-.8-3.2 1.3 0 3.1 1.4 4.7 3.7z"
      ></path>
      <path
        fill="#fff"
        stroke="none"
        strokeWidth="0.1"
        d="M67.811 19.314c1.7 3.4 3.1 5.1 3.1 3.9 0-.7-.9-2.2-2.1-3.5-1.6-1.9-1.8-2-1-.4z"
      ></path>
      <path
        fill="#fff"
        stroke="none"
        strokeWidth="0.1"
        d="M54.911 3.814c.8.5 2 1 2.5 1 .6 0 .3-.5-.5-1s-1.9-1-2.5-1c-.5 0-.3.5.5 1z"
      ></path>
      <path
        fill="#fff"
        stroke="none"
        strokeWidth="0.1"
        d="M50.211 8.014c4.3 1.9 4.7 2.4 4.3 4.9-.3 2.1-.1 2.6 1 2.2.8-.3 1.2-.9.9-1.3-.3-.5-.1-1.1.5-1.5.6-.4.8-1 .5-1.5-.6-1-9.2-5-10.7-5-.7.1.9 1 3.5 2.2z"
      ></path>
      <path
        fill="#fff"
        stroke="none"
        strokeWidth="0.1"
        d="M61.411 6.514c.6.6 3.3 3 6 5.4l5 4.3-4-4.3c-2.2-2.3-4.9-4.7-6-5.3-1.1-.6-1.5-.6-1-.1z"
      ></path>
      <path
        fill="#fff"
        stroke="none"
        strokeWidth="0.1"
        d="M25.211 11.014c-3.6 3.6-4.4 4-5.8 2.8-1.4-1.2-1.4-1.5.2-3.4 1-1.2.2-.6-1.8 1.2-2 1.8-4.2 3-5 2.7-.9-.3-2.6 1.2-4.7 4.4-3.5 5.5-3.9 7.1-1.7 7.1.8 0 1.5-.4 1.5-.8s1.8-2.8 4-5.2c2.2-2.4 4-4.9 4-5.5 0-.5.5-.3 1 .5.9 1.3 1 1.3 1 0 .1-1 .5-.7 1.3.8.7 1.2 1.6 1.9 2 1.6.4-.4.7-.3.7.3 0 .5-1.1 2-2.4 3.2-2 1.9-2.4 2-3 .6-.3-.9-.2-1.4.3-1.1.5.3 1.5-.2 2.2-1.1 1-1.1 1-1.4.2-.9-.8.4-1.1.2-.7-.7.3-.8-.2-1.4-1.1-1.4-.8 0-1.4.5-1.3 1.1.1.6-.3 2.1-1 3.3-.7 1.3-1.1 2.3-.8 2.3.3 0-.2 1.6-1 3.5s-1 3.5-.5 3.5 1.2-1.3 1.6-3c.4-1.6 1.1-3.2 1.5-3.5.5-.3.4.8-.2 2.5-.5 1.7-.8 3.4-.5 3.7.3.3.9-.8 1.3-2.3.8-3.4 9.3-12.6 11-12 .7.3 3.1-.2 5.5-.9 2.4-.8 3.5-1.4 2.4-1.4-1.1-.1-2.7-.6-3.5-1.1-1.3-.9-1.3-1.1 0-2 1.3-.8 1.2-1-.3-1-1 0-2 .8-2.4 1.7-.8 2.3-5.5 6.3-6.6 5.6-.5-.3 1-2.5 3.4-4.9 2.4-2.4 4.1-4.4 3.8-4.4-.2 0-2.3 1.9-4.6 4.2zm7.7 2.2c0 .2-.9.6-2 .9-1.1.3-1.8.1-1.4-.4.5-.9 3.4-1.3 3.4-.5zm-23 7.6c-1.2 1.7-2.4 2.9-2.7 2.6-.3-.3.5-1.9 1.7-3.6 1.2-1.7 2.4-2.9 2.7-2.6.3.3-.5 1.9-1.7 3.6z"
      ></path>
      <path
        fill="#fff"
        stroke="none"
        strokeWidth="0.1"
        d="M11.811 10.514l-2.4 2.8 2.8-2.4c2.5-2.3 3.2-3.1 2.4-3.1-.2 0-1.4 1.2-2.8 2.7z"
      ></path>
      <path
        fill="#fff"
        stroke="none"
        strokeWidth="0.1"
        d="M37.711 11.514c1.8.2 4.5.2 6 0s0-.4-3.3-.4-4.5.2-2.7.4z"
      ></path>
      <path
        fill="#fff"
        stroke="none"
        strokeWidth="0.1"
        d="M7.111 16.014c-1.6 2.1-5.3 9.9-5 10.6.2.4 1.7-2.1 3.4-5.5 3.1-6.5 3.4-7.2 1.6-5.1z"
      ></path>
      <path
        fill="#fff"
        stroke="none"
        strokeWidth="0.1"
        d="M40.411 15.814c3.9.3 8 1.2 9.3 1.8 1.2.7 2.2 1 2.2.7 0-1.5-7.5-3.5-12.7-3.4l-5.8.2z"
      ></path>
      <path
        fill="#fff"
        stroke="none"
        strokeWidth="0.1"
        d="M29.911 16.814c-.8.5-1 1-.5 1 .6 0 1.7-.5 2.5-1s1.1-1 .5-1c-.5 0-1.7.5-2.5 1z"
      ></path>
      <path
        fill="#fff"
        stroke="none"
        strokeWidth="0.1"
        d="M72.911 18.814c.6 1.1 1.3 2 1.6 2 .2 0 0-.9-.6-2s-1.3-2-1.6-2c-.2 0 0 .9.6 2z"
      ></path>
      <path
        fill="#fff"
        stroke="none"
        strokeWidth="0.1"
        d="M24.511 20.614c-2.4 2.6-2.5 3-1.1 4.2 1 .8 1.5.9 1.5.1 0-.6-.5-1.1-1.2-1.1-.6 0 .1-1.4 1.7-3 1.6-1.7 2.6-3 2.4-3-.3 0-1.8 1.3-3.3 2.8z"
      ></path>
      <path
        fill="#fff"
        stroke="none"
        strokeWidth="0.1"
        d="M30.211 20.714c-1.7 1.1-3.4 1.7-3.7 1.4-.3-.4-.6-.1-.6.5 0 1.5-.3 1.6 5.4-1.3 2.7-1.4 4.3-2.5 3.5-2.5-.8 0-2.8.9-4.6 1.9z"
      ></path>
      <path
        fill="#fff"
        stroke="none"
        strokeWidth="0.1"
        d="M36.911 20.814c-1 1.8-.8 2 3 2 3.9 0 3.9 0 2.3-2-1-1.1-2.3-2-3-2-.7 0-1.7.9-2.3 2zm3.5 0c.3.5.1 1-.4 1-.6 0-1.1-.5-1.1-1 0-.6.2-1 .4-1 .3 0 .8.4 1.1 1z"
      ></path>
      <path
        fill="#fff"
        stroke="none"
        strokeWidth="0.1"
        d="M47.411 20.714c4.1 1.8 11.5 9.1 11.5 11.3 0 .6.3.9.6.6.3-.4.1-1.6-.6-2.7-.6-1.2-.7-2.1-.1-2.1 1.4 0 3.1 5.9 2.9 10.4l-.1 4.1-.7-4.5-.7-4.5-.2 4.5c-.1 2.5-.4 5.5-.7 6.7-.6 2-.3 2.1 3 1.7 2-.2 3.6 0 3.6.5s1 1.1 2.3 1.4c1.9.3 1.4 1.2-5.3 7.7-4.1 4-5.8 5.9-3.7 4.1 2.5-2 4.5-3 5.6-2.6 1 .3 2.4-.1 3.1-1 .7-.9.8-1.5.2-1.5-.6 0-1.2.6-1.5 1.2-.2.7-.8 1-1.2.5-1.3-1.1.1-1.9 4.2-2.3 2.1-.2 3.1 0 2.3.3-.8.3-3.1 2.1-5.2 4-2 2-4.1 3.2-4.7 2.9-.6-.4-1.4.1-1.7 1.1-.4 1-1.8 2.9-3.3 4.2l-2.6 2.4 3.3-2c1.8-1.1 5.4-3.7 8-5.9 2.6-2.1 5-4 5.4-4 .5-.1 1.1-.3 1.6-.4.4-.1 1-.2 1.3-.2.3.1.5-.9.5-2.1-.1-1.3.4-2.1 1.2-1.9.6.1 1.2-.2 1.2-.8 0-.6-.7-1-1.6-1-1.1 0-1.4-.5-1-1.6.3-.9.8-2.8 1.1-4.2.3-1.5-.4-.3-1.5 2.5-1.3 3.2-2.8 5.3-3.7 5.3-1 0-1.3-.5-.8-1.8.4-.9.8-3.8.9-6.4.1-2.7.8-5.4 1.5-6 1-1.1 1.1-.7.7 1.7-.4 1.6-.3 2.4 0 1.7.3-.6 1.2-1.2 2-1.2s1.4-.5 1.4-1c0-.6-.4-1-1-1-.5 0-.9-1-.7-2.3.4-3.8-2.6-2.6-3.6 1.5-1 4.3-2.7 5.1-2.7 1.3 0-1.8-.5-2.5-2-2.5-2.5 0-2.7 2.7-.2 3.2 1.4.3 1.3.5-.5 1-2.1.6-2.3.3-2.3-3 0-5.6-3-12.8-6.9-16.4l-3.5-3.3 3.2 3.8c1.8 2.1 3.2 4 3.2 4.2 0 .9-3.6-.9-6-3-3-2.7-6.3-4.5-8.2-4.5-.7 0 .5.9 2.7 1.9zm26.5 15.1c0 .5-.5 1-1.1 1-.5 0-.7-.5-.4-1 .3-.6.8-1 1.1-1 .2 0 .4.4.4 1zm-5.3 7.6c.2.7-.6 1.1-2 1-1.6 0-2.3-.6-1.9-1.4.5-1.5 3.4-1.2 3.9.4zm-5.7.4c0 .5-.4 1-1 1-.5 0-1-.5-1-1 0-.6.5-1 1-1 .6 0 1 .4 1 1z"
      ></path>
      <path
        fill="#fff"
        stroke="none"
        strokeWidth="0.1"
        d="M31.311 24.414c-1.8 1.4-1.8 1.4.6.3 3.1-1.4 3.6-1.9 2.4-1.9-.6 0-1.9.7-3 1.6z"
      ></path>
      <path
        fill="#fff"
        stroke="none"
        strokeWidth="0.1"
        d="M11.311 25.514c-.4 1-1 4.7-1.3 8.3-.5 5.5-.9 6.5-2.6 6.7-1.6.2-1.7.1-.4-.5 1.4-.6 1.5-.9.4-1.9-1.1-1-1.5-.8-2.1 1l-.8 2.2-.7-2.5c-.7-2.4-.7-2.3-.8.7-.1 2.6.2 3 1.8 2.6 1.1-.3 3.2.5 4.9 1.7 1.7 1.2 3.5 2 4 1.6.6-.3 1.3-.2 1.7.4.3.5-.1 1-.9 1-1.8 0-2.1 1.1-.7 2.5 1.7 1.9 7.9 14.4 7.3 14.9-.3.4-1.4-.2-2.5-1.1-1.7-1.5-1.7-1.3.3 1.4 2.4 3.3 12.6 8 15.2 7 .8-.4.7-.6-.5-.6-1-.1-3.4-.8-5.5-1.7-3.5-1.4-3.6-1.6-1.8-2.9 1.8-1.4 1.7-1.5-1.7-3-4-1.7-4.6-2.9-2-4.3 1.5-.9 1.5-1.2-.5-3.6-2-2.7-3.9-2.3-2.1.4.5.8.9 1.9.9 2.5 0 .5-.9-.5-2-2.3-2.2-3.6-2.5-4.6-1.1-3.7 1.7 1 2.1-1.1.6-3.1-.8-1-1.5-2.6-1.5-3.5 0-.8-1.6-2.1-3.5-2.9-1.9-.7-3.2-1.6-3-2 .2-.3.5-3.3.6-6.6.1-3.2.6-6.7 1.1-7.7.5-1 .8-2.1.5-2.3-.2-.3-.8.3-1.3 1.3zm6.7 24.5c1.2 2.1-1.5 1.9-2.9-.3-.9-1.4-.8-1.7.5-1.5.8.1 1.9.9 2.4 1.8zm6.4 14.8c.3.5-.1 1-1 1s-1.3-.5-1-1c.3-.6.8-1 1-1 .2 0 .7.4 1 1z"
      ></path>
      <path
        fill="#fff"
        stroke="none"
        strokeWidth="0.1"
        d="M47.911 24.114c0 .2 1.5 1.4 3.3 2.7 2 1.5 2.7 1.7 1.8.6-1.3-1.6-5.1-4.1-5.1-3.3z"
      ></path>
      <path
        fill="#fff"
        stroke="none"
        strokeWidth="0.1"
        d="M76.011 23.814c0 .3.6 2.5 1.3 5 .8 2.5 1.5 3.6 1.5 2.5 0-1.7-2.6-8.8-2.8-7.5z"
      ></path>
      <path
        fill="#fff"
        stroke="none"
        strokeWidth="0.1"
        d="M19.611 25.414c-1.2 1.2-.8 2.4.9 2.4 1.1 0 1.4.6.8 2.2-.8 2.7-.1 2.2 1.6-1.2.7-1.4.9-2.2.5-1.8-.4.4-1.3.1-1.9-.8-.6-.8-1.5-1.2-1.9-.8z"
      ></path>
      <path
        fill="#fff"
        stroke="none"
        strokeWidth="0.1"
        d="M6.011 28.414c0 1.1.3 1.4.6.6.3-.7.2-1.6-.1-1.9-.3-.4-.6.2-.5 1.3z"
      ></path>
      <path
        fill="#fff"
        stroke="none"
        strokeWidth="0.1"
        d="M36.011 29.414c-1.7 1.4-3 3-2.8 3.7.1.6-.5 1.1-1.3 1.2-1.7 0-2.7 3.5-1 3.5.7 0 .9-.7.6-1.7-.4-1-.4-1.4 0-1 1 .9 6.5-4.3 5.8-5.4-.3-.5.2-.6 1-.3.9.4 1.6.1 1.6-.6 0-1 .5-.9 1.8.2 2.1 1.9 5.5 3.2 4.7 1.8-.3-.6-1.2-1-1.9-1-.8 0-1.9-.7-2.6-1.5-1.7-2-2.4-1.9-5.9 1.1zm.9.8c0 .2-.8 1-1.7 1.7-1.6 1.3-1.7 1.2-.4-.4 1.3-1.6 2.1-2.1 2.1-1.3z"
      ></path>
      <path
        fill="#fff"
        stroke="none"
        strokeWidth="0.1"
        d="M25.311 30.314c-.9 1.4-1.5 2.7-1.3 3 .3.2 1.2-1 2.1-2.6 2.1-3.6 1.5-3.9-.8-.4z"
      ></path>
      <path
        fill="#fff"
        stroke="none"
        strokeWidth="0.1"
        d="M1.011 30.414c0 1.1.3 1.4.6.6.3-.7.2-1.6-.1-1.9-.3-.4-.6.2-.5 1.3z"
      ></path>
      <path
        fill="#fff"
        stroke="none"
        strokeWidth="0.1"
        d="M69.211 29.514c-.7.3-1.3 1.4-1.3 2.6 0 2.1 0 2.1 1.6-.1 1.7-2.5 1.6-3.2-.3-2.5z"
      ></path>
      <path
        fill="#fff"
        stroke="none"
        strokeWidth="0.1"
        d="M54.511 31.114c.3 1 .9 1.5 1.2 1.2.3-.3 0-1.1-.7-1.8-1-.9-1.1-.8-.5.6z"
      ></path>
      <path
        fill="#fff"
        stroke="none"
        strokeWidth="0.1"
        d="M11.911 31.814c0 .5.7 1 1.5 1s1.5-.5 1.5-1c0-.6-.7-1-1.5-1s-1.5.4-1.5 1z"
      ></path>
      <path
        fill="#fff"
        stroke="none"
        strokeWidth="0.1"
        d="M35.611 34.614c-3.4 3.5-3.9 5.2-1.5 5.2.5 0 .6-.5.2-1.1-.3-.6.7-2.4 2.2-4 2.2-2.3 3.5-2.9 5.4-2.4 1.9.4 2.1.3 1-.5-2.4-1.6-3.4-1.2-7.3 2.8z"
      ></path>
      <path
        fill="#fff"
        stroke="none"
        strokeWidth="0.1"
        d="M3.911 33.214c0 .9.5 1.6 1 1.6.6 0 1-.4 1-.9 0-.6-.4-1.3-1-1.6-.5-.3-1 .1-1 .9z"
      ></path>
      <path
        fill="#fff"
        stroke="none"
        strokeWidth="0.1"
        d="M64.011 33.414c0 1.1.3 1.4.6.6.3-.7.2-1.6-.1-1.9-.3-.4-.6.2-.5 1.3z"
      ></path>
      <path
        fill="#fff"
        stroke="none"
        strokeWidth="0.1"
        d="M19.511 36.114c-.8 4.1-.2 5.7 1.9 5.7.7 0 1.6.6 1.8 1.2.3.7.6-.8.6-3.4.1-3.7-.2-4.6-1.3-4.2-.9.3-1.6-.2-1.8-1.3-.3-1.1-.7-.3-1.2 2zm3.4 2.7c0 .5-.7 1-1.5 1s-1.5-.5-1.5-1c0-.6.7-1 1.5-1s1.5.4 1.5 1z"
      ></path>
      <path
        fill="#fff"
        stroke="none"
        strokeWidth="0.1"
        d="M45.411 33.614c1.9 1.4 1.8 8.2-.2 10.5-1.6 1.9-1.6 2 0 .8.9-.7 1.7-.9 1.7-.4 0 1.5-3.5 4.3-5.3 4.3-1.1 0-1.4.5-1 1.6.4 1.1.8 1.2 1.3.4.4-.6 1.6-1 2.6-.8 1.3.2 1.8-.2 1.6-1.3-.1-.8.9-2.6 2.3-3.9 2.5-2.4 3.3-5 1.5-5-.5 0-1 .6-1 1.4 0 .8-.4 1.7-.9 2-1.1.7 0-4.7 1.1-5.5 1.1-.7-2.1-4.9-3.7-4.9-.7 0-.7.3 0 .8z"
      ></path>
      <path
        fill="#fff"
        stroke="none"
        strokeWidth="0.1"
        d="M12.211 35.314c-.3.9-.3 1.8-.1 2.1.3.3.8-.4 1.1-1.6.6-2.3-.1-2.7-1-.5z"
      ></path>
      <path
        fill="#fff"
        stroke="none"
        strokeWidth="0.1"
        d="M37.711 35.914c-2.1 1.2-2.4 5.4-.5 6.6.6.4 2.3.6 3.7.5 2.3-.1 2.3-.1.5.7-1.5.7-1.6 1-.4 1 3.8.2 6.4-6.4 3.6-8.8-1.9-1.5-2.7-.4-2 3 .5 2.5.2 2.9-1.5 2.9-1.2 0-2.6-.9-3.2-1.9-1.3-2.6-1.3-3.1.3-2.5.8.3 1.4-.2 1.4-1.1 0-.8-.1-1.5-.1-1.5-.1 0-.9.5-1.8 1.1z"
      ></path>
      <path
        fill="#fff"
        stroke="none"
        strokeWidth="0.1"
        d="M.011 39.914c.1 1.9.5 4.5.9 5.9.6 1.6.7.6.3-3-.7-6.3-1.3-8-1.2-2.9z"
      ></path>
      <path
        fill="#fff"
        stroke="none"
        strokeWidth="0.1"
        d="M16.011 39.414c0 1.1.3 1.4.6.6.3-.7.2-1.6-.1-1.9-.3-.4-.6.2-.5 1.3z"
      ></path>
      <path
        fill="#fff"
        stroke="none"
        strokeWidth="0.1"
        d="M30.611 40.614c.1.8.3 1.9.3 2.5 0 .7 1.3 2.1 2.8 3.1l2.7 2-1.9-2.2c-1.1-1.2-1.7-2.4-1.4-2.7.3-.3 1.1.1 1.8 1 .7.8 1.6 1.5 2.1 1.5.4 0-.2-1.1-1.5-2.5s-2.8-2.5-3.4-2.5c-.6 0-1.2-.3-1.5-.8-.2-.4-.2-.1 0 .6z"
      ></path>
      <path
        fill="#fff"
        stroke="none"
        strokeWidth="0.1"
        d="M56.111 41.814c0 1.4.2 1.9.5 1.2.2-.6.2-1.8 0-2.5-.3-.6-.5-.1-.5 1.3z"
      ></path>
      <path
        fill="#fff"
        stroke="none"
        strokeWidth="0.1"
        d="M20.011 44.414c0 1.1.3 1.4.6.6.3-.7.2-1.6-.1-1.9-.3-.4-.6.2-.5 1.3z"
      ></path>
      <path
        fill="#fff"
        stroke="none"
        strokeWidth="0.1"
        d="M77.511 45.914c-.8 4.2 0 5 .9.9.4-1.7.5-3.4.2-3.6-.2-.3-.7 1-1.1 2.7z"
      ></path>
      <path
        fill="#fff"
        stroke="none"
        strokeWidth="0.1"
        d="M5.911 44.714c0 .6.8 1.9 1.8 2.9.9 1 2.3 2.7 3 3.8.7 1 .3 0-.8-2.3-2-4.2-4-6.4-4-4.4z"
      ></path>
      <path
        fill="#fff"
        stroke="none"
        strokeWidth="0.1"
        d="M4.011 46.414c0 1.1.3 1.4.6.6.3-.7.2-1.6-.1-1.9-.3-.4-.6.2-.5 1.3z"
      ></path>
      <path
        fill="#fff"
        stroke="none"
        strokeWidth="0.1"
        d="M23.911 45.614c0 .7 1.5 2.7 3.3 4.5 1.7 1.8 2.2 2.1 1.1.7-1.2-1.4-2.6-3.4-3.2-4.5-.6-1.1-1.2-1.4-1.2-.7z"
      ></path>
      <path
        fill="#fff"
        stroke="none"
        strokeWidth="0.1"
        d="M54.011 47.514c-1 2.6-1 2.7.4.9.8-1.1 1.5-2.3 1.5-2.8 0-1.5-.7-.8-1.9 1.9z"
      ></path>
      <path
        fill="#fff"
        stroke="none"
        strokeWidth="0.1"
        d="M39.411 46.814c.3.5 1.3 1 2.1 1s1.4-.5 1.4-1c0-.6-.9-1-2.1-1-1.1 0-1.7.4-1.4 1z"
      ></path>
      <path
        fill="#fff"
        stroke="none"
        strokeWidth="0.1"
        d="M56.811 49.914c-.7 1.3-1.7 1.9-2.9 1.6-1.7-.4-2.9.8-3.5 3.9-.5 2.2 5-1.5 6.8-4.6 1-1.6 1.6-3 1.3-3-.3 0-1 .9-1.7 2.1z"
      ></path>
      <path
        fill="#fff"
        stroke="none"
        strokeWidth="0.1"
        d="M4.911 49.114c0 2.1 5.3 10.7 9.2 14.7 4.1 4.3 14 10 17.3 10 .8 0 1.5.5 1.5 1.1 0 1-1.3.9-6.7-.6-1-.3.2.4 2.7 1.6 4.6 2.1 14.6 2.9 18.3 1.4 3.3-1.4-.1-3.5-5.7-3.5-5.8 0-13.5-1.9-18.3-4.4-5.2-2.6-12-9.6-15.3-15.6-1.6-3-3-5.1-3-4.7zm39 26.7c0 .5-1.8 1-4 1s-4-.5-4-1c0-.6 1.8-1 4-1s4 .4 4 1z"
      ></path>
      <path
        fill="#fff"
        stroke="none"
        strokeWidth="0.1"
        d="M60.311 51.014l-1.9 2.3 2.3-1.9c1.2-1.1 2.2-2.1 2.2-2.3 0-.8-.8-.2-2.6 1.9z"
      ></path>
      <path
        fill="#fff"
        stroke="none"
        strokeWidth="0.1"
        d="M61.411 54.014c-4.6 4.8-4.6 4.9-.9 1.7 3.5-2.9 7-6.9 6.1-6.9-.1 0-2.5 2.3-5.2 5.2z"
      ></path>
      <path
        fill="#fff"
        stroke="none"
        strokeWidth="0.1"
        d="M2.911 52.414c0 3.2 10.6 16.1 15.5 18.7 1.1.5-.6-1.4-3.8-4.3-3.2-2.9-7.2-7.6-8.8-10.4-1.6-2.8-2.9-4.6-2.9-4z"
      ></path>
      <path
        fill="#fff"
        stroke="none"
        strokeWidth="0.1"
        d="M26.711 55.814c1.5 2.1 2.9 3.7 3.1 3.5.2-.3 1.6.2 3.2 1 3.1 1.7 8.9 2 8.9.6 0-.5 1-1.1 2.2-1.3 2.3-.3 3.5-3.8 1.2-3.8-.8 0-1.4.7-1.4 1.5 0 1-1 1.5-3.4 1.5-3.5 0-5.7-1.5-3.4-2.2.7-.3.3-.7-.8-1-1.7-.4-2-.1-1.6 1.8.4 2.4-1.1 3.3-2.3 1.4-.3-.6-.1-1 .5-1s.8-.5.4-1.1c-.5-.8-.9-.8-1.4.1-.9 1.4-3 .5-3-1.3 0-.7-1.1-1.7-2.5-2.4l-2.5-1.1zm13 4.7c-1 .2-2.6.2-3.5 0-1-.3-.2-.5 1.7-.5s2.7.2 1.8.5z"
      ></path>
      <path
        fill="#fff"
        stroke="none"
        strokeWidth="0.1"
        d="M53.311 58.014l-1.9 2.3 2.3-1.9c2.1-1.8 2.7-2.6 1.9-2.6-.2 0-1.2 1-2.3 2.2z"
      ></path>
      <path
        fill="#fff"
        stroke="none"
        strokeWidth="0.1"
        d="M64.611 63.314c-3.2 3-7.5 6.4-9.5 7.5-2 1-3.3 1.9-2.9 2 3 .1 15.6-9.2 17.7-13.1.6-1 .9-1.9.8-1.9-.2.1-2.9 2.5-6.1 5.5z"
      ></path>
      <path
        fill="#fff"
        stroke="none"
        strokeWidth="0.1"
        d="M27.111 61.314c1.5 1.6 2.9 2.7 3.1 2.4.3-.2-1-1.5-2.7-2.8l-3.1-2.4z"
      ></path>
      <path
        fill="#fff"
        stroke="none"
        strokeWidth="0.1"
        d="M52.511 61.314c-1.1.8-1.5 1.5-.9 1.5s1.6-.7 2.3-1.5c1.6-1.9 1.1-1.9-1.4 0z"
      ></path>
      <path
        fill="#fff"
        stroke="none"
        strokeWidth="0.1"
        d="M66.411 66.014l-4 4.3 4.3-4c3.9-3.6 4.7-4.5 3.9-4.5-.2 0-2.1 1.9-4.2 4.2z"
      ></path>
      <path
        fill="#fff"
        stroke="none"
        strokeWidth="0.1"
        d="M52.111 64.514c-1.6 1.1-2.6 1.3-3 .6-.5-.8-1.3-.8-2.9.1-2.2 1.1-2.2 1.2-.4 2.3 1.5.9 2.5.7 5.5-1.3 2-1.4 3.6-2.7 3.6-2.9 0-.7-.2-.6-2.8 1.2z"
      ></path>
      <path
        fill="#fff"
        stroke="none"
        strokeWidth="0.1"
        d="M32.711 64.514c.7.3 1.6.2 1.9-.1.4-.3-.2-.6-1.3-.5-1.1 0-1.4.3-.6.6z"
      ></path>
      <path
        fill="#fff"
        stroke="none"
        strokeWidth="0.1"
        d="M40.311 65.414c-1.8 1.4-1.8 1.4.6.3 3.1-1.4 3.6-1.9 2.4-1.9-.6 0-1.9.7-3 1.6z"
      ></path>
      <path
        fill="#fff"
        stroke="none"
        strokeWidth="0.1"
        d="M31.711 67.514c.6.2 1.8.2 2.5 0 .6-.3.1-.5-1.3-.5-1.4 0-1.9.2-1.2.5z"
      ></path>
      <path
        fill="#fff"
        stroke="none"
        strokeWidth="0.1"
        d="M38.411 67.814c-2.8.7-2.8.8-.5.9 1.4 0 3.2-.4 4-.9 1.7-1.1.8-1.1-3.5 0z"
      ></path>
      <path
        fill="#fff"
        stroke="none"
        strokeWidth="0.1"
        d="M50.811 69.814c-1 .6-4.8 1.4-8.5 1.9l-6.9 1 6.6-.3c3.6-.2 7.8-1.1 9.5-1.9 1.6-.9 2.5-1.6 1.9-1.6-.5 0-1.7.4-2.6.9z"
      ></path>
      <path
        fill="#fff"
        stroke="none"
        strokeWidth="0.1"
        d="M21.611 72.914c.7.7 1.5 1 1.8.7.3-.3-.2-.9-1.2-1.2-1.4-.6-1.5-.5-.6.5z"
      ></path>
      <path
        fill="#fff"
        stroke="none"
        strokeWidth="0.1"
        d="M48.711 73.514c.7.3 1.6.2 1.9-.1.4-.3-.2-.6-1.3-.5-1.1 0-1.4.3-.6.6z"
      ></path>
    </svg>